<mxfile host="app.diagrams.net" modified="2024-06-06T03:00:55.613Z" agent="Mozilla/5.0 (Windows NT 10.0; Win64; x64) AppleWebKit/537.36 (KHTML, like Gecko) Chrome/125.0.0.0 Safari/537.36" etag="D-v4khbOXP4NKfu9wC50" version="24.4.14" type="github">
  <diagram name="第 1 页" id="3tUlroh5XNwTupJuTmao">
    <mxGraphModel dx="1434" dy="746" grid="1" gridSize="10" guides="1" tooltips="1" connect="1" arrows="1" fold="1" page="1" pageScale="1" pageWidth="3300" pageHeight="4681" math="0" shadow="0">
      <root>
        <mxCell id="0" />
        <mxCell id="1" parent="0" />
        <mxCell id="iDm44NRPFB-tu1wQ126g-2" value="使用U-net分割图像" style="rounded=0;whiteSpace=wrap;html=1;" parent="1" vertex="1">
          <mxGeometry x="550" y="310" width="350" height="40" as="geometry" />
        </mxCell>
        <mxCell id="iDm44NRPFB-tu1wQ126g-14" style="edgeStyle=orthogonalEdgeStyle;rounded=0;orthogonalLoop=1;jettySize=auto;html=1;exitX=0;exitY=0.5;exitDx=0;exitDy=0;entryX=1;entryY=0.5;entryDx=0;entryDy=0;" parent="1" source="iDm44NRPFB-tu1wQ126g-3" target="iDm44NRPFB-tu1wQ126g-13" edge="1">
          <mxGeometry relative="1" as="geometry" />
        </mxCell>
        <mxCell id="iDm44NRPFB-tu1wQ126g-3" value="将图像与标签、掩码等属性对应" style="whiteSpace=wrap;html=1;" parent="1" vertex="1">
          <mxGeometry x="551" y="490" width="350" height="40" as="geometry" />
        </mxCell>
        <mxCell id="iDm44NRPFB-tu1wQ126g-4" value="假阳性去除（FP reduction）" style="whiteSpace=wrap;html=1;" parent="1" vertex="1">
          <mxGeometry x="550" y="630" width="350" height="40" as="geometry" />
        </mxCell>
        <mxCell id="iDm44NRPFB-tu1wQ126g-5" value="提取、裁剪、转换格式、排列等初步操作" style="whiteSpace=wrap;html=1;" parent="1" vertex="1">
          <mxGeometry x="550" y="130" width="350" height="40" as="geometry" />
        </mxCell>
        <mxCell id="iDm44NRPFB-tu1wQ126g-11" value="学习特征：&lt;div&gt;diameter、attenuation、spiculation、lobulation、lungpos&lt;/div&gt;" style="whiteSpace=wrap;html=1;" parent="1" vertex="1">
          <mxGeometry x="80" y="788" width="150" height="80" as="geometry" />
        </mxCell>
        <mxCell id="iDm44NRPFB-tu1wQ126g-12" value="集成分类器" style="whiteSpace=wrap;html=1;" parent="1" vertex="1">
          <mxGeometry x="90" y="690" width="150" height="80" as="geometry" />
        </mxCell>
        <mxCell id="iDm44NRPFB-tu1wQ126g-13" value="训练图片+标签，构成弱监督数据" style="rounded=0;whiteSpace=wrap;html=1;" parent="1" vertex="1">
          <mxGeometry x="380" y="480" width="120" height="60" as="geometry" />
        </mxCell>
        <mxCell id="Tpp6FSEmbBxcYZosuy-4-1" value="" style="shape=image;verticalLabelPosition=bottom;labelBackgroundColor=default;verticalAlign=top;aspect=fixed;imageAspect=0;image=data:image/png,iVBORw0KGgoAAAANSUhEUgAAAGUAAABmCAYAAADS6F9hAAAAOXRFWHRTb2Z0d2FyZQBNYXRwbG90bGliIHZlcnNpb24zLjUuMywgaHR0cHM6Ly9tYXRwbG90bGliLm9yZy/NK7nSAAAACXBIWXMAAA9hAAAPYQGoP6dpAAApLklEQVR4nG2daXMbx9WFDwYDYAYbQYibRFGLbVVcqfz/b/kTqYqTiiPllUTTFEUSBIh9mXk/wE/zTJuoYpEEZum+y7nn3r49qP39738vN5uNyrJUWZZKkkT1el273U61Wk1lWaooivD3arXSw8ODJpOJLi8v9Y9//EO//PKLbm9vlee5Go2GiqJQvV4P55ZlqRcvXqjb7er6+lqz2UxlWaperytJEqVpqt1up9VqJUnh/Vqtpt1uF8bCjyQlSaKyLCvj3G63qtVqqtfrqtVqarVa2u12Yn7xuRy73W7FCzmkaapOp6OyLDWdTrVer4N80jRVmqbqdrs6Pz9Xnuf6/PmzRqORdrud6vW66vW61uu11uu1Go2G+v2+yrLU4+OjiqJQkiRhHMyDuacILUkSSQoT5OWC4CQG32q11G631Ww2lWWZms2miqIISkGZCIm/GTCv3W5XuScCRjHxq1arVT5DcQiaSUvSdrsNivPrNxoNNRqNcF/kwO/NZqPxePyn63N+vV5Xp9NRr9fTer3WdrsN89ztdpXrxQaHbLbbbVDIZrORpL3Cd7tdRSEMkJdbLEJN01SS1Gq11O121ev1wrnj8Vhcc7fbqdFoKE1TbbdbTSYTrVarIDx+mBAT5jdWx7VjZTBhxuvXdCvkcz/XFRorxO/vL/7HU3q9ntrtdvD8JEkqY6rX62o0GhWZcl+QZL1eqyiKcNx2u1WKq/pg4sm5sCSp2Wyq0Wio1Wqp3+/r3bt3Go/H+v79e3BhV3SSJNpsNtpsNsGdURQWiDvzHi/3PITKez4+znGY4j3O8WOyLNNut9NisQjX8vNdHvyNoiUpz3MNh0NJ0mKxCN6E12w2GzWbTTWbzYr83FhqtZrSNA3z474pk+VAhx23PlecK61er6vb7aooCn3//j1YhEMYP8vlUpKCUubzuTabTRAa13QDcOjh2i4oxuVC9RgUKwojbLfbms/nz2I6xwGDjAnBNRoN9Xo99Xo9zWYzjcdjrdfriuEVRaFWq6U0TbXZbELcihEB+WNcaZoqxeXiD/xF4Pf44zgLZmIxQBIK5FWr1ZRlmfI8V71eD5NAgIwDq0bgDhsOrY7LnBcrw+fF581mM3gvc/LYwlg86Ltim82mut2udrudbm9vNZ1OtVqtgvCLolCapjo4OAjxk3m6YlA2CscIU4crJgzeudXyt0NBWZbK81ztdlvfv3/XcrkM7zMpH0i73Va/3w8MDc9x92VS/Li3MAGfhHsGwneYwaBcQUmSaLFYhPjm83PoRQ4OZUmSKMsytVotzWYzPTw8aLVahXEztna7rTzPK8yuKIoQ0DHsWPZJkjwpBU/AKnyyjs0MzhnI4+Nj5RiuRaAuikJZlqnf7+vw8FBlWWoymVQGFLMjVwYKQ1GubD8vZpAe5F3xm81Gy+UyWC8Kjpmo/40ysywLcP34+KjValXx3jRNw7zm83nlMx+jU2I/plar7SmxW5YLwxXgOQsK4MLL5VLz+Vz1el1Zlmm5XAZ3bjQa2u12arfbevv2rbrdrmazmabTabAaZ3euFO7rQoq91zHfFcL44vcdlmKqDwS6LGBGMKlWq6V6va67uzstl8tgnA7DkkLAxyPcgMh1OM7RarPZKI2FD0YzSKweS12v14FzJ0mi6XSq6+trjcfjwP+3221gUdDdi4sLvX//vpK0xYHbGZbDE7jO5OP8BzjEwBx+iX0oFkFDXjz/iJmmv8/YJGk6nWo6naosS7Xb7ZCkeox1y/c5cC3mR67EeX/E0vRP7sOAmChBtygKrVar8P90OtXNzY1+//33StZLLrPb7dRsNnV8fKyLiwsdHh5qsVgoSRKtVqtKAskgEQJegJHE1JTPnT3GgdRjjc8nZm7x/LluPC4Et1wutVgsVJZlSA+8guEeF+dMoAsK4tjNZvNEaDyguoXEVhxTx7IsdXt7q//7v//T/f19CHaO61mW6fj4WC9fvlS9Xtd8PpckbTYbLRaLiuUiANw4zqBdYSRveDITiqHOhe8Q4tfnM2duKMU9GivebrfB+Mqy1GKxUKfTqXirexcw5XIDSSAMGB7loNTLGa5pL1u4C0LvxuOxvn79qq9fv4aA5j+1Wk2dTifUfC4vLzUcDnVycqKy3NfQnI47rKH87XZbUUCccQOnvA/EOT3mOBcwgo9hLM6TYvIRewKQDkS3Wq0Kg+Rvh2qMEOaJ8t1rUs8knQI6LjO41WoVgvr19bU+ffqk0WgUCoFOXQmMm81Gv/32m7bbrX7++WcNh8NAE916wP1ms1khEmTF5DQuDEkVAbjSKFtwn5ic8HecEsCe/Fyu62TEjWe1WqnVaqnZbIZrubG44bnRr1arShKOLFJ3bbeImLptNhtNp1PNZjN9//5dHz9+1PX1daVuFceF3W4XoK3T6QQLgSg45rrrOwwhGPck9xQ3Gs4HMpw2I5Tncg+uy1w9Z/Exep0NeMJQHG6dJMVj83v63PD0siz3eQoDh8n4xfCA6XSqyWSix8dHff78WV++fNFisahYKDdg4tDi3W6nfr+v3W4XrhFXVj1QehGPOlKj0VCz2axguscvjwfU1dbrdYUWx8yIc535xSmAy8DprV8Ho/JQADGKcx+H1dj7pD9KUG7VzqO50Xq91mw20/39vcbjsS4vL/Xp0yc9PDyEtQgGBIY6W3MKuFqt9Pj4qPl8XsncgYy4iBmXQlqtVmBknM94XTHuSW6NkoLgUABKdOuNmV7sIU6CPPHk/Uaj8eyY3NMZC9fcbDZKkkTtdnvvKX4B/n9OId++fdOnT5/07ds3leW+xEJAdivywOo4u1gstN1uQyHQa2guJCwNS4Iy4kVuhR4jPJfwcbmHxITGFRh7iEONjwdlOJR6mQgji5XmnuWxj7mAFqlbFAMjqE6nUz0+Pmo0Gunm5ka//PKLPn78qPl8HkrSeIu7P+87c5Kk5XKp2WymxWJRSbhipsS1VqtVpRi6Wq0qARwr51wybgSFNbqQ+cyTNrzcoThmYi5cjz0o2mPHZrOpxBWOiSsMzEF6ioPr9XoPXwgH6yKxm8/nGo/Hurq60n/+8x/9+uuvGo/HQUDAFgNF6yRVzWZTaZqGEvZisdByudRyuQzMar1eV7ylVttXcR1vGbhbPvQX60RBGIPjNEJ4rsbmtJh7OiP1GMIcn2OoHMN7fk+E7vd28sD91uv1fiwU5tAwCkF4l5eX+te//qX//ve/mkwmAWLAda/jOCPxcgeDWK1WocTvnuTBtd1u6+DgIFRf47zAY0kcQyAE3NOPi+OAV7OdzsdxJa4L+pyQAzU893SuBdQ6y3RFOssM0P39+/c/rYsQkB8eHvTPf/5THz9+DOvVDCQWiv9O01SNRkOr1Uqz2Swsm1I3g5HFOF6v19Xr9cK5eBD47RN4jjU5FMbeAaQ4zHhA97E4nMUlGn95/uOsEeWRX3lscYW48rhnWZZKR6NRGNB2uw0raTc3N/r27Zv+97//hWKj3zDGSicLWZapXq9rPB7r8fFRrVZLWZYFpTxX1sHFm82m5vN5IAOec7iFOq0kYyZ+ucV6UI9zIm9i4LpxOcYV514Sl1RcITGL5Rwg0Fnmc7lNOp/PQyyZzWa6ubnR1dWV7u7udH9/H9ZK/KZODri5WxsQstlsgqCfw3Su5dm2pFASjwOoW5Z7RrPZrKzmxVkysBYnpzC5uOzueUWcx3nuwfvPQZKXmzjGjQklxYZdFIXS2Wym1WqlyWSi6+tr/fbbb2GtgME65YzXBlzj/KCMVqsVyg9OJ71K6pMA27H65xI5LNvXYvy3V1+9FhaX02Pvdit2T/Zj+ey5TN2P81jFfONzec+JBGNPV6uVbm5u9PXrV11fX1eWNyVVrBAhudu6K3pzhccdAr/DlfN/4tRzwndF8sIyvfjonuaW7DkNUOiWGscFX+X0NRxim9frmNNzBMHjRpwHuRF7PwTHpPf39/r8+bN+//13PTw8BLrKAIEe+D5ajiEENhUnZFi1J4oeZBECg4sF457iE+Y9/w3EejGQv91LUEgswLj+Fpd7YobmSxWMOwjWKtswUZSEwXKOKzNJEqUfP37U1dWVptNpWJQCb+nagCZjLVgfVJqL+voBimAyMQ6jUCyPhSJW9GJcdzhg8l5X8mSOzxzXHd89WMfvBQYU1a443vMNrvucx3qe5bE2zrk4Bjm0222lnz9/DrUox2Bvw1kul8FTyC1gUU45sS4XHl72XPxwy2KxigQKZcS4/Nwytcc8LNE9+DlP8b9d4bFQubeTlHr9qe3W5+fzRvDO+HxebjzMqdVq6fz8fB/o3dXJwne7ffcgHoJAYFb871k9Wie4bzYbZVkmSYHl+IBiNgJJcEE7FMTK8c/c2xzqYtiL45MLiXugkDhmuIcQX/jbY6FDo8czL4zGxtBsNnV0dKR3794pdcv0jBxluFvjSZzDseQ4MIg8z0PHunsCCuRe7i3udS4gFwjHozTGA2w6M4tx3zHd10mYm0Ozw6cndkVRqN1uV2IsxuXjjXOYOJ9y2GRO3W5Xb9682XuK00dgwb3DXZJVQS9/t1qtClY2m031ej1dXFyo2+1qsVjo4eFBNzc3ld5htziE5jDH5/4/5wGtWCDNC7VaLTQEuic78/IyvAdurxi4JzgD9LK7xzOHNf/NvZ2lMg9nj8DWjz/+qE6ns28x4qJxz6srBKX5+sZz/L3Vauni4kJ/+9vf1Ol09Ntvv4VOF+pE7g14Vr1e12KxCPlHHDylp273drtdYYje1uRzcPYTk4u4RubFRX4gKlg7ivJcyuMbx2CkXqGmDOPjIfE9PT3Vu3fv1O/39zJBq04dYwxlUGyCiSmqV4pPT0/1888/682bN6G32Fcb/R4e5Ihl1MY8eHuppVarhS5Fh6vpdBquDTzgmd7l75bskINnsSThccEhzq2cpJjPPA4xDu7DGJwYpGmqw8NDXVxc6OzsLDC+sJ7iluBCZ8C+2wsXRBkU+waDQYAtdnp9+fJFo9Gows48i/WiI90veJbTU/+bvSG050ynUyVJoslkouVyWelO8awdQcRxh3hJ96Of60zLyQweURRF6Dnwe8TJsHsu92232zo9PdXr168DWjQaDaVY5XPBnv/jpVdXDjdpNpt68eKFsizT1dWVvn37psvLy+Ahjqt4FS/u1Wq1lOe5siwL5f2ieGrHkRS69rvdrtrttjabjVqtVvDK6XQa1ml4uVKcIWKQzWYzLI4Bf15nc8rv7A/hxzmOU21gPjbqer2uw8NDvX//XkdHRxUFpu5mzmY8g43LGO5BDObw8FDD4VCTyUSfPn3S1dVV6IaEIsf0kGuzXJAk+zXqk5MTSfvNONPpVN+/f5e036jTbDY1GAx0enoaYklZlprNZtrtdprNZqrX61oul0ExDhvAWZZl4VwU4lsWMBTm6wbplu+JH/JzwXtuQi4oSb1eT+/evQuw5UYaVh4d63BBHwzCd9zmuH6/r5OTE63Xa11fX4e2IicQMVQ4DBKvmEi329XR0ZFGo5EuLy/V6/WUpqkGg4HSNNXZ2ZlOTk4qTI4tfkmShJ6C8Xhc8RCwHY/0BNS3MzhFdtobywImGrMvcj9PdN3Q+/2+zs7OdH5+HlqvpH2etVwu95QYFyN587KFU0jiAZ8lSRIUkiSJbm5uQvyIKaDnJLHVOc0OvU9pquFwqMfHR9Xr+27+4XCoVqul4XCoPM8rGTFwAl0GDlarVSXI+5Y3KuEQGIehGKaBceQgSfP5vJI8eoeOK8/v32g0dHBwoIuLCw0Ggz95clmWf+6QhAnlea6yLCv7+VzAbDEDRm5vbzUejyuNyr5mH3N2JxOeVMLAZrOZjo6O9PLlS93d3SnPcx0fHytN91upgQHwn8kWRRFIglsx46JfAOPwQmtcJ3OKHNNezmWXMc0mZOcOa8irVqup1+vp/PxcZ2dnYTGQa0LZQ9c91slFwUeswrP23W6/3+Tw8FCtVkv39/dhAyqWweR8D/tz+/68QLdcLoMQYVHHx8chOez3+5UkDw9BcI1GQ51ORycnJyqKIuQ9s9ksWDEdMfEyA/OLSykxXHvG7mkD98ewMDaqHJCh4+NjvX79WoPBICiCnCn0TvviDwKnk8XrXQiG9ZVut6s8zzWZTDQajSqlF0/avObEb4I/90Mo3DPLsiCwTqdTKUT6IhaKjRO0druto6MjSXu2NhqNNB6PK0qPvcGbHzwh5nhvgPBci3gJpXbjxYO2261arVZIGc7OziohwAuo2+12rxS06hbhS7Tr9VqLxSIIpN/vq1araTqdhkUxF4xTQe9+dAjDE1erVWXNpigK9Xq9ikE8lzvFK6AOQUmS6PDwMLC029vbEPyJifP5PFB1jyEeS51lulfBIBGiz8eDvqcbeZ7rzZs3evXqVci1eCGH9Xq9j40M0oXlWI1F+hIoUPP4+BgWxZ6rLTks8r9v0QZnuTelkk6no3a7HYp/CAnLJLgzobhjkmDfbDbV7/d1cHCg4XCo6XQaIO3bt28hF8LDGYsrx+/pRCBOE1CwKwulttttvX79Wq9fv9bBwUGlTdZrjVwnBPq4a8TpIMqBUkrS4+OjJpNJoHu8GKyf6wphYkwCGHP+3+12wy5ih1dnWw5fXNuNg7kkSaLBYKBWq6X5fB66NOOlCQzK5+rZOrHB0YTsn2OZHwrcbrchaydJRGnkSXHP2B9zeCphgG1YgOcSWGSWZaHb0RmMBz4/z5mOZ8QcD0St1+vQLwYUxCuWxB/e4/x4jT1uXSVBxHvKslSv16vslZlOp4G6klOQTEoKyS8BPWZmyIF5ctxwONTbt291fn4edhWT3HJsvBiWemGRyTqWevAmD2Cifo6kijCdpXju4y9XNpQWBeH+fg8vASEIp/HO8oBaXl709HodBEZSIAIOV64Ap/eUTlywDnmNRkN5nuvly5c6Pz9XlmWVeA1cY7jcu9Fo7GPKc4svfjICJ0DCyd0a0XJcYvDYhPcRTyh3EAMoyhlfrySr0tMjRIgNQARCo0jpZXWUyZi63W6gqORixEcgxRNAX+RyJGDeLidpXw7K81zn5+d6+/ZtMDaPty5j8h3unTJgdzu06EyCRBCl8HJ4co9BsHFxzy0ewRHwWc71ifteDwTF3kI2s6JIb2qgY9+9h3OpsZFHsLQANMaLcc6yPLfC2JgrySAKgf6yOOhLBp7B452Um1LPKN0avHzAZ75QxSuuD7k3xBQzzogZ2GazUZ7noXTuCudF0sf9iG2UURyTPalDICCBw0yr1dLBwYFev34dKgXX19eSFBJOxkGXZdyF4nkNTy5qt9s6OzvTmzdvKltG3EPYBed5WoBz/iDxcazGYvAcghSDc+9wzHU8d0rtMMK5WGuj0QjPDvNqq3eUQEZC5muZMx4bgmWUB/j5XicjIWaODw8PlVKQNxKC+864mDtyZCXx7OwsEA6XBXkfv0EkPCkoxTGb+OKZL4HVH1nh53ANjymOsXEA9MzcA2qv19NgMAhxBsUzLvdQv68bBK+YRXp1ASEAm3E27t7m3Tu879dy78+yTC9fvtSrV6/U7/f/VAj1udDDzfl49G6326/Rw8fdMrFIJuhsytcM3Cs8HvjnWIivOzAx3yyaZVnI5v3evDyucF/3AO7tHotXMW5Yl6TQ8yw9EQis1yk794SluTw8nr148UIXFxc6OTkJSvbFtBh9gDBkw/1TtzjPB4LW/sBrIMAtBejxc4EUV5wrCabhiST3cKv083yPh1s6x7mXxMzIvdQFQ32N8XgR1Uv5wKRXM5w4cM9ut6uzszO9evVK3W43zAumiUFzDUoqXi7a7XbK83zPvtwLOMkZVdwB6FbqQTXOW/A8L2XEXgQt9om70hxK3VuIG7ESXDHOjIgjGJ3Pj3GgYDyVJI8FMSAPZaGgTqcTWoSo/nK/OH7ytFXm4g9z4BlhKZN2mHDsxTO4idfAnDJyExSIVaIM79XimiiApO45y/e6lr8QMIIHZpwNen2K+3oJJDZIvz/XI+/hGp7x44mnp6f66aefNBwOKwjBPYmPy+WyYlDuKTygrtvt7gO9Vz4dPqSnHMWTLxdQXE11ZcVC9DqY19II/G75DjeMIxace1IcWzy++HKCU1mMAjLjivKxwjaddWKYp6enevPmjV6+fKl2u10xmKIolOe5JIUa23q9rsQZjs3zXG/fvt1XkbMsC49whTO7MvjBCzyO4EEOZyiFH55ZnGVZhZdzPPkCA/eEEOH5WoYvNfi93bvc8rmG5wMoyZXF4wtRDEQHY/Qch57r4XCoi4sL/fDDD+p0OpKe8iISVe5LBSLP88r+y6LYt8IeHx/rw4cP+utf/6q03+9Xlnx9sEzKOT9WEjMh4M0ZHAXMLMvCZGBbKM8TU3+gMvf0OOU5ixdS4+VqPBirZbnAK72eB02nU43HYz08PFSEz4sxUCqhxemHH37Qhw8fdHBwUJEX3t9qtbTZbMIWReTWbrcD84KOHxwcqFaraTQaKb24uNDj46Om02kYBJYB5MCx3X2xdIcTt14U5cU+aLfXpbAkipK0pPorxmh3faenXvLxHMHh0sv0SZLo4eFB8/lco9EoeEu9vm/AY/MsCmHs3W5XP/30k/7yl7/oxYsXgZgA8xgjsAi8ZlkWCIzvwazX67q/v9evv/6qz58/K3358qVGo5G+fPkSBoCbY5GcTAEPobigXHhxecbLEV5m9+v4Fgws0plJDFfOED0Qe88BkMt4PAsH429vbzWZTHR3d6fZbBbGz/oLWX2r1VJRFOr3+/rpp5/04cMHDYfDAHUOWwicvjVnd4QCDCdJktBVc3d3t/eewWCgt2/fajqd6vb2tvIEUo8jTBKIiqkox/DjtSgUxv/OingRq2JhY9UOmYzPcxU+8zYfZ5TMx5sUHh4edHd3p+vra83n8/AIQl9jB/LKstRwONSPP/6oH3/8Uaenp38iNF7xpiPHkcGJCnW72LAkKW00Gjo5OQn71sFVDnTc9heTA4Lc6okhCBnlxlUBjwu4OotdXopxeu7sD0Nwb+b5jl7yp0fMqexyuQw9BjyoM37wAmOgJff9+/d6+/ater1epXDqkEULLauysQd7tQIPjmNeKilsXyiKInzlBHUmp8lezo8TN+CKIp8X26igEje8toT1wuNpO6VrBq+I8w9vWOD+Dw8PIUYwLxrB2+12mAdrJ3TqIyyn+nmeq1ar6eDgIHQznpycKM/zMB8giXI9bIsOSbwNb4+9O4ZjZBoe7AlPbjQa+ve//63RaBRgyOMLF/bFK1eUpMo+E5TJNeJ4g8Uvl0tNJpPQLOf9Zl5W8aCNN6KQ6+tr/f7770Fh0FTuy7h55hiLdTQe9vt9LZdLHR4ehj6zs7MznZ2dhb0jXlYqyzI0eHQ6He12u7B/NEmeFu08oXQ5MT8fY1EUT22rULXj4+PQKQ/GuhUBV27tnlNQM0LZMDcvccSZNWsiPMdluVyGB4KiBG908ycfMSkece5ts5CFdrsd1mPoTwMmGZd7PvtfDg8PQ3e/r4JikLBFPITHOQYYSp+2/HmiyDV4D88j8w/b68gfsizTu3fvtFqtdHl5GRgJLvccf/dVNXDbs2J4u1sZ9yWuwHKm06myLNN4PFan0wm9v04ceDgcucBsNtNsNgtb61AyzR1gvreYdrvdcA+PY+wQ6Pf7lZoc4yWzJ7cgXj0+PlbqWli+x2WMBcMgtnkJK6yn8IKP9/t9vX//XkmShD0mMBIugPadlTEIL4+4cmIG4oVG3xpObBkMBup0OkE53W634l2tViv0n/HUVwJuWe47VujkBLfr9f3mJMjIdDoNne882AfP8JjGiz7rfr9fiSGTySRAdrvdDueQvPryAWPBYCErzC3F1bBkrBYO3mw2dXl5GXqF/YJYfJyLcCMfBMrwc9y7wGKoJNn/wcGBlstlUEiapiGYk4ze3Nzo9vY2eAYbj4bDYSijg+vED6848EU7nkt4vuEI0el01O12g8fhpXgBRMDjsZeLYKzI2408VCHIQj3bxOKOjo6CZVxdXenm5iZUOuOSvVNQ/9/Xn50tYUVMgOvQtTiZTCoKdbgcjUaazWYha7+9vQ1jOzg40GAwCLvKSHg5Fm9lzs1mM3R5YnA+F8/m8Tysn22Ay+UyNE14bEJOvNdoNEI4QNG1Wi1srgIxUu/Vxc3BPybB12zkea7r62tNp9MAUy5UZ0i4vrMwp8HECUkhBuAt5BnQYqyIflvwu17f9+COx+MQY7rdrobDYWBLCJ98A5oKXK1Wq/BVUJ4/eOFVUmjqICZMp9Pw5HJfevBmC4co7xXmN/Lx95IkeVpP8YBInsBAwfXDw0NdX1+H3VrQZvIGX/dGSV4mR4FMgAni4p7Vp2kagqAnfOQXVHRhVN1uV1mWha8uRFBZlqnT6VSSVMbjSmC8rJ9QVmEXMooFqvAuz6MQMEZN8GYeJIk8jcO9yj02dEgiECyK5In3u92uDg4Owhbjm5sbXV9f6+7uLnwrHcpwDPXg7kymKIqQQXtZxguVeE673Q70l3vhSa1WS0dHR8qyTIPBQMPhUFmWheIgBU5KH47dWKaX9IO1WobO1wb6MzCBRSzePdBjBLEHj/G/fY2GvxeLxdNWCDCPmALOeUafJElYsuz3+zo9PdXd3Z2+ffum0Wikh4eHCk93AhCva8SLWJ7pg62+bLvZbMKzLQmqR0dH6nQ6Oj4+DkrB6twDfJcV1gzsEMMQCrBG5z+5Q1mWlb2MxAofs2fnXjv0mp8rsCzLsDmKBDpQYk/2EIbnGk5dgSGssd/v69WrV7q/v9fV1ZVGo5Emk0lIPrFEEj48AoVh8S4sJoNA2aTqDQ0kdcPhMHgH1osQwGw8i7HDeryLEiGxAxmaTHWCRyiW5VOHCvNwi0dmKMNrghgm6ylAFyySsYRvr8OK3K2ZQPxyD6Ku1O/39eLFi1B/omzNs41hKhAJlOHK8cKmxxk+xwLzPNdgMNDx8bEGg0Hl2Sy8vDTD2ohjPnvtmf9utwt79JvNZqjBAaGMy7sksXIvzHJfJws8rJQKMgrxRnVfYEzdatG+/47d0Su+flyapqFnq9PpBAtnAY1YQIJIMCdZpPTR6XQqhU+vFmPRg8FAh4eHOjw8rNSW+NntdqFJG4V5vxcK4X1IgT99CQhnHF58RC4Ozf43XugVCKrH3JugD4Lkee6ln7SC8c6S/H9fXqXGhcK4BgkYFtXpdJTneVgaAErYm8GA7u/vg6XRfOCsjCclsd7P40K8Muv1rPihBu7hcVwhiLMPnwTWq9we1BmnXxv2iRy8bJLneaVqDXWv1fZPXPL+hHq9/rSPnpuhGApkPhlnF1iSQx+UmOMZrC+RcqwLsSgKvXjxInzmAdCtkRhG7EB5QAOwCD6jSE8AEZwbV61WC3s46/V6eGwjCmZcXh8kVnkhEUXjJSiNzbWMUVIlWcVjPSlP6Q4Ez/2hbAjW3ZYTvcAGI/H/URRCjr+wwJkXZW8vazAeJwNgMnCCwBEw16OuheXTwEAOhpew85hrYSTe3OGxFZLiCOHU1peDkSPMDwUyz+l0qm63W/kembBv0guKWDpCZNLgsyuK8zgeuGHCXoT0yXjiCPZLChiMUlEgJXK8JqbYKIjJsneFe3vJ3b2YGlWz2aw0S3iVAoNwJXhV3NHCyySe9yE7r5Bvt9tQRUBeeExRFE8PzMGtvRMdwYCZDme4Z6wwXgyCuhBBt1arhR4wSZVvuXZFOwN0SPVFMvcufgMlCMmDOtch6XQGBW1G+MQOBIkQGSvI4OkESkVeGDRj9tVF5opBMM7wpTbOMLwZGcGTQMVW5FzdoSmGPy+DY/F4jSesTizigqc3sBHcCayO6cvlsrK5iNxjvV6H2p4zHQToRVSgDoaEkcUIwdgwLhDDIZxyjTdgME/QASMKgR6hxWvOvvbNCb7Hwiu/CN8z3XgvSVxxJan039yb63m88gqzVxmAQ4c6Z5Red2OOJLU8sMFzBTce/kbAniLwP1/Pi8f7+gmK9vWYWKYwNGJWo9H48+5gBoPVxyUIvzBLnh4EQ1b6x2e++8njSWxtz2W/ThT47SUSCIAnong19+F42BrCx+LdS/BYz8V8jQmLh+VxLX9GscdnjAM5IguXBx7jDDh1q8BdnfJyEd6PIQvt8l64cPq05wQMxuLd2lzAZN28sDAsCVpKJdcV5TDCecCJJ49e0sDgWL/3gO1QDZNyeGP83Mfl4KUi7kFwBzZROucQe7fbrcKKk1uuK8Q1inD9nBiKKOj5EyDcnZ06uwW6Erw+hXC4PpMgMDIGMB9Bcr6vk3g9Co9COZLCuBE0uZdfH2LDmD3O4EFuPBQZOceJCi/eB94TBkUc8SDl3/YD30d4Xuvhhp4zONQ4tjtcoFjHV78/x8zn89AIgTcAG5RpWAHE8r3qwOee4DIPD8buxV6mp2TkHuCGgoG5wLmms1jkEBu2G9NyuVTirurBncGT/JD4eECi8yNJktCvhXfRvOD02a3UcxenvU4dnfFAP1GIl9xhUOQrTt+fe2orVV5fC4EWU4mGRTn8erM2RuZJIqUSlA9sOaw/tw7jdcV6vf4UUzyIw7LiYMwNUArHuDIQclw7YxII0Kk1/4P/DnUOeVRtHSadgjthAUbwcI9vQKr3gEmq9PZyDa6L13tPGcKE1W02mxA3pKdFrc1mo3a7HfrZfD8lMuQ6aZruyyyuSX+5JROomLRTRAbpbuxLq1zXu2DAdO7ND67Ob/dOoMavTY7C/z4eKr/uJUmShNqU16jcuxyCHZpRFnAfs06vEQLTvlZPWYVzKUjigcFrnUGAjw5pDBKXfI6NMTAskPO8bMOgXQkoe7fb907F5XEsE2tCIM/Fo9j7SCB5EQ+c7mIo3Dces9fAGJeTIJ+7M1d+4loYLxABWTgxqdfrSghgXtYgs3ch8jnUEUvgHH6wPOf+/HZIQyBAiBdF3aUZh9Np9ySEjfHElou18jfewfFAtbNBDKUoitB1iZE6dHle5obnK5D8eMdMrVYLSSfy8IcbJJ5zIBCsxRM5BlPJPNOnr1Z1WHO85X02xjAwukI4nh9il5MNxgSMuLVjrQRvXyrw0gbzZNwImDl7i5DHPQyN8XhR0uOJGxtj8HKPH8c4vCOGBHiz2ezZlwvPYwUW5DDlXkURDu7u5Qc/1+EDZsNiF9/pyGQc+pzFuNLi4O9kAxbo8c3/hy2iKITLuNyaGROW7Mpizngt1WZHCYdPxu91ul6vV6mWkEAmXsEEErz+xOc+Ed7zgfO3B2WUDOzxHkmbQ4h/D4srkpjitTWsl4ImAqP6HFe8vQ0VT8DaaZQDTrkX13fjc0IA1OE5XJ9alhsWhAR5sEN4u92GlUm2TWy32/2jpcgLnoMFZxiOuT54LM1dHAVzDaeTWLDf11mKpGfL9HmehzoR9SwP1J7bAD1xxo2wGo2G5vN5pUDplV2oNPJgfB6ndrun9RLP+vkWceKGpwrIM8uysMOgXt+36fZ6vb38gBUvVXswY3Be/wEm/PF+xBavODuTQWhxIMaDsGxnNGA82MxYPR7EDBGlc66zIF/PYFxsKySvcXhkrQUDQXEYnbM9rkmDhCecGA/j5bpZloW2WQy70+lUn83iCVtMT50GcwEGh+V5xwhu7THIYc3rXB7DEJYrkCAawx5CBh743DN4Jy1uVN5+6nkJAbjyqKc/cpp4bcSJiCfCJIr0FMRGSg+zQ613pCYeTF0IDmUOOxQD40poUey3IJCwgfv+iHasx7HeIcvjFEbi5XLHea+TeRcJv8kxXLDETr6al3MxKoyIBJPreLJLAu1s0FODOClk7lQiqMHBFv2JgGHfDBdFKGAk9BWoceblSsK7PLAiWOfw/r6TAI5DiL4i+NxvZ3hOdQm+sEEEwXuz2UyLxSK0OjmF9UoC9+ea9DHHGTtPHndjqtX2TzTy5nC+BQkDJF9pNBohuPMg0FCWQmNYLuVjLxF4ucGLbJQ3ONePQ2FxHuSU2SHMFYmQPFdAAP70C+5HAsxKIlVhntiNUsqyrOyVx+Khs4ylKIpKGQjjarfbTx0nf8QaiqvMCdiCXWVZFtgVXjMcDtVo7J8EyBpKUey36H358kX/D8MmIW9tCRRtAAAAAElFTkSuQmCC;" vertex="1" parent="1">
          <mxGeometry x="550" y="10" width="101" height="102" as="geometry" />
        </mxCell>
        <mxCell id="Tpp6FSEmbBxcYZosuy-4-2" value="" style="shape=image;verticalLabelPosition=bottom;labelBackgroundColor=default;verticalAlign=top;aspect=fixed;imageAspect=0;image=data:image/png,iVBORw0KGgoAAAANSUhEUgAAAGUAAABmCAYAAADS6F9hAAAAOXRFWHRTb2Z0d2FyZQBNYXRwbG90bGliIHZlcnNpb24zLjcuMSwgaHR0cHM6Ly9tYXRwbG90bGliLm9yZy/bCgiHAAAACXBIWXMAAA9hAAAPYQGoP6dpAAAJXElEQVR4nO2by24TyxaG/+ruqu62nWAcYgKEKOGeCYJBhihPgMQoIAbMGCDIA4DYYyQQYsgDgBCKBBMGjBE8AkJCIhI3J1ESjOPYbbuvZ2CtOjabvffROSS90KlPiuJL26qqv9e1ygJABgMrrLwHYPgzRhSGGFEYYkRhiBGFIUYUhhhRGGJEYYgRhSFGFIYYURhiRGGIEYUhRhSGGFEYYkRhiBGFIUYUhhhRGGJEYYgRhSFGFIYYURhiRGGIEYUhRhSGGFEYYkRhiBGFIUYUhhhRGGJEYchvK8r169fzHsKO8VuKcuXKFYyPj+c9jB1DgNnP665du4aHDx/+5fsXLlzA4cOHMTs7i5GREfR6PbTbbTSbTfzxxx+7ONKdg52llMtl3L9//6fvXbx4EXv37sXk5CSOHTuG6elpzMzMYHZ2FsePH9/lke4cTt4D+BGl1F+6plOnTsF1XZw4cQLHjx9HHMdIkgQAUK1WsbS0hIWFhd0c7o7AThTXdZGm6Z9ev3v3LqamplAsFjE1NYXR0VEkSYI4jiGlhFIKSim8ePEC58+fz2Hkvw6WorTbbbx8+RIzMzP4/PkzPn36hD179uDIkSNwXRflchlKKQBAGIaQUsL3fRw4cABJkmBpaQkfPnzArVu3cp7Nfwc7UYQQSNMUzWYTruviyJEjKBaLcF0X+/fvh5QStm3Dsiw4jgMpJSzLghACnuehUqng2LFj2q39jrATxXEclMtl/bxSqcBxHNi2DSklXNeFZVmwLAtZliHLMsRxDCEEsiyD53kol8uYnp7GkydPsLy8/NtlZexEieMY+/btg23bcBwHvu8PLXqapnAcB1EUAQBs20aapsiyDEIIJEkC27YxOTmJQ4cO4eTJkzh16hS+fPmC1dVV3Lt3L+cZ/jPsRAnDEGNjY6hUKiiXy9oqwjCEbdvodruI41jHFCEElFJI0xRxHMO2bRQKBTiOg0KhgGq1iomJCdRqNWxsbODs2bO4fPlyzrP8e9iJAvRd1v79++H7PqIo0lYQhiGyLNNxBYC2nm63C8uyoJSCZfXLL8uyYNs2Dhw4gFKphGq1imaziVevXmF+fj7PKf4t7ERxXReu60JKiSiKEMexjh1pmqLX6yGOY6RpCsuyIKVEGIYA+gJZlgXf97W7y7J+w6JYLGrrybIMz58/x/v377G8vIxarYaXL1/mOe0h2InieR56vR56vR4AIE1TJEmiF1xKiSAIEEWRzsBs24bv+zqe0HtkYVmW6fiklEIcxzqVLhQKcF0351kPw04UpRSiKEIURbqQpMUfvKbRaGjxyuWyDvIA0O124boubNvWcUZKqb9jfHxcp9AA0Gw2sbCwgJWVFbx582b3J/0D7ERxHEff5ZZl6cWl+sWyLJRKJViWhUajoWNMlmU6XRZCoN1u69cpHtm2rd1YpVJBmqaIoghra2vY3NzUbjBv2IkipYQQQj8mgiDQsSbLMpRKJSil0G63oZSCEAKO4yBJEggh9HdQskAukGKSZVkoFouYmJjAmTNndH3jeR6ePn2ay9wJdqJUq1Xdx6LCMEkSbT1hGKLX68HzvKFrXNfVi52mKVzX1UGeXFeapjqWKKVQKBTgeR6KxSKEEOh2u6jVapifn8erV69yWwNWojx69AgHDx7EyMiILhqpOSmlRLfb1RYA9LOtQddGIgDQWZuUUrs9comDRabjONrySHQqTPOC1X7K6OgoxsfHdYCmLjD9kRVQQSmEgG3b+noA2nKopiEhkySBlHKoJxZFkRbd8zxIKdHpdHKPLWxEuXHjho4Xtm3rGiNJEnQ6HbRaLb3wQgidMg+6OEqfgX8Xjo7jaPGoRUMujNJnx3F0QpGmKYIgyG0dAEbuixYF6N+13W4XaZoiTdMhl0XWQi6GsitaeHJHg9eSlZCro8AP9N2c53nwPA9ZlukaJ0/YiELtEbIOwnVdOI4z5J4GawxaeMq8yNoGm5j0eeqhURZGVkR9MxLj7du3u78AA7ARhdorg8GaXBkAvbBkCWRFPxaXYRgOpcRJkuiqn9o2g23/QqGAOI51o3MwDc8LNqIIIdDpdLC1taVrDrrTKfUlC6A7mza4AOiYQo9JDHo/iiL0er2hhib9z7IMjUYDrVYLz549y20NCDaiBEGAVqsFoL9HQu5sMICHYahdlVJKB2ZacHJlAHTMcV0XnU4HlmXp1g0A7eaiKMLm5iY2NjawuLiYz+R/gI0oSin4vo9yuaxdCLkgig+DRSQ9jqJIx4VB1yOl1LXKoNXQVsDg3j432KTExWJRd3CFENr302LSog8+p9ZJt9vVgV4ppWMIZVqDHWNKIjqdDur1es6z/jksLOXSpUu6MxyGoc60qIij5+TOhBB6H4XiimVZumikmEKfowRBSqkr/DAMUavV8pnwP8BCFLrru90uWq2WjhdUe1A2NdgioQwsDEO4rqstYHt7G9vb29p6bNvG6Ogo0jSFUkp3i5vNJr59+5bzzH8OC/e1tLSEOI7RarXQaDTQbrd1C4QyMd/39Z0O9AM5bW6RcGtra3j37h3m5uZw7tw5fP78WW+IFQoF/X3r6+vY3t7G5uZmzjP/OSwsBehvNK2urqJQKEBKiYMHDw7VLOS2yBXRfyoGV1ZWMDc3N/SdFy9eBAC8fv0avu+j0+kgiiJsbGzg+/fvuHr16q7O8T+F1an7mzdv4sSJE5iamsLRo0dRKpV0w5HaINQLC4JgKAU+fPhwzqP/dbCxFKC/jVuv1zEyMoLV1VWMjY3B9319EIKq+SAIUK/X9UGImZmZvIf+S2FlKUD/9ynValUfpqtUKqhUKvB9H2NjY7rYW1tbQ6lUghACp0+fznvYvxRWlgIAHz9+RKPRQBAECIIAExMTaDab2Ldvn96HX1lZQb1eR7vd/ukJ/d8ddqIMnr+6ffs2AOisiVLnr1+/4vv375BSsg3W/wvsRBlkc3NTF4yUMgdBgPX1dayvr+POnTt5D3FHYBdTfmRxcVGfOlFKYWtrCzdv3sx7WDsKa0sBoLMw2vJ98OBB3kPacdiL0mq19OG6x48f5z2cXYG9KPV6HZ1OJ9dzWLsN+5jy/wiLhqRhGCMKQ4woDDGiMMSIwhAjCkOMKAwxojDEiMIQIwpDjCgMMaIwxIjCECMKQ4woDDGiMMSIwhAjCkOMKAwxojDEiMIQIwpDjCgMMaIwxIjCECMKQ/4F3rPu9LVR3iYAAAAASUVORK5CYII=;" vertex="1" parent="1">
          <mxGeometry x="551" y="368" width="101" height="102" as="geometry" />
        </mxCell>
        <mxCell id="Tpp6FSEmbBxcYZosuy-4-3" value="" style="shape=image;verticalLabelPosition=bottom;labelBackgroundColor=default;verticalAlign=top;aspect=fixed;imageAspect=0;image=data:image/png,iVBORw0KGgoAAAANSUhEUgAAAGAAAABgCAAAAADH8yjkAAABe0lEQVR4nO3UvUtCURgG8Fe55vUzFVOHq30qCmmRa20aQjTl2tYQLbYZBIJtbRE4BLnVVlOCUAQFFRREWUNERGmmqNciLDM/uv0Hdo7o9v7m85znfHEAEEIIIYQQQggh1JKdFC8Iwh5VhiEfGnmJ+q1ai8kniCgKxMQjNzQJxu8uveej18sUBcQ7kDoCvFxUHSilG8FZigLiHRweqxilUZUrKiSvF2cdKLgtsIy6yinUOm099jZDXEB8RMl1AObJVC6pDXZ71+YuaY74QQhLdzcfnE6fyRa+AEIrbS9Y2+rrvTr9MY66KvX488Rlud0FJ+MgMtRMD7VB1j0Nsvk0aZAUH/QZtB6Xs18MALBKnCO+5MV7ziVlG9mRse9u+SffwhL/ER8GUALrXZhklI7AI3GO+A7csbmkMZeuVIbMxYYsPNXSKpviIlaw2Lx6ADB7yGM0H+P+USJTVdh68tsUIZoCCP1qnAfnqSRNhpakk5MjhBBCCCGEEELN/QHnQGYE7CcLIgAAAABJRU5ErkJggg==;" vertex="1" parent="1">
          <mxGeometry x="860" y="780" width="96" height="96" as="geometry" />
        </mxCell>
        <mxCell id="Tpp6FSEmbBxcYZosuy-4-4" value="" style="shape=image;verticalLabelPosition=bottom;labelBackgroundColor=default;verticalAlign=top;aspect=fixed;imageAspect=0;image=data:image/png,iVBORw0KGgoAAAANSUhEUgAAAGUAAABmCAYAAADS6F9hAAAAOXRFWHRTb2Z0d2FyZQBNYXRwbG90bGliIHZlcnNpb24zLjUuMywgaHR0cHM6Ly9tYXRwbG90bGliLm9yZy/NK7nSAAAACXBIWXMAAA9hAAAPYQGoP6dpAAApLklEQVR4nG2daXMbx9WFDwYDYAYbQYibRFGLbVVcqfz/b/kTqYqTiiPllUTTFEUSBIh9mXk/wE/zTJuoYpEEZum+y7nn3r49qP39738vN5uNyrJUWZZKkkT1el273U61Wk1lWaooivD3arXSw8ODJpOJLi8v9Y9//EO//PKLbm9vlee5Go2GiqJQvV4P55ZlqRcvXqjb7er6+lqz2UxlWaperytJEqVpqt1up9VqJUnh/Vqtpt1uF8bCjyQlSaKyLCvj3G63qtVqqtfrqtVqarVa2u12Yn7xuRy73W7FCzmkaapOp6OyLDWdTrVer4N80jRVmqbqdrs6Pz9Xnuf6/PmzRqORdrud6vW66vW61uu11uu1Go2G+v2+yrLU4+OjiqJQkiRhHMyDuacILUkSSQoT5OWC4CQG32q11G631Ww2lWWZms2miqIISkGZCIm/GTCv3W5XuScCRjHxq1arVT5DcQiaSUvSdrsNivPrNxoNNRqNcF/kwO/NZqPxePyn63N+vV5Xp9NRr9fTer3WdrsN89ztdpXrxQaHbLbbbVDIZrORpL3Cd7tdRSEMkJdbLEJN01SS1Gq11O121ev1wrnj8Vhcc7fbqdFoKE1TbbdbTSYTrVarIDx+mBAT5jdWx7VjZTBhxuvXdCvkcz/XFRorxO/vL/7HU3q9ntrtdvD8JEkqY6rX62o0GhWZcl+QZL1eqyiKcNx2u1WKq/pg4sm5sCSp2Wyq0Wio1Wqp3+/r3bt3Go/H+v79e3BhV3SSJNpsNtpsNsGdURQWiDvzHi/3PITKez4+znGY4j3O8WOyLNNut9NisQjX8vNdHvyNoiUpz3MNh0NJ0mKxCN6E12w2GzWbTTWbzYr83FhqtZrSNA3z474pk+VAhx23PlecK61er6vb7aooCn3//j1YhEMYP8vlUpKCUubzuTabTRAa13QDcOjh2i4oxuVC9RgUKwojbLfbms/nz2I6xwGDjAnBNRoN9Xo99Xo9zWYzjcdjrdfriuEVRaFWq6U0TbXZbELcihEB+WNcaZoqxeXiD/xF4Pf44zgLZmIxQBIK5FWr1ZRlmfI8V71eD5NAgIwDq0bgDhsOrY7LnBcrw+fF581mM3gvc/LYwlg86Ltim82mut2udrudbm9vNZ1OtVqtgvCLolCapjo4OAjxk3m6YlA2CscIU4crJgzeudXyt0NBWZbK81ztdlvfv3/XcrkM7zMpH0i73Va/3w8MDc9x92VS/Li3MAGfhHsGwneYwaBcQUmSaLFYhPjm83PoRQ4OZUmSKMsytVotzWYzPTw8aLVahXEztna7rTzPK8yuKIoQ0DHsWPZJkjwpBU/AKnyyjs0MzhnI4+Nj5RiuRaAuikJZlqnf7+vw8FBlWWoymVQGFLMjVwYKQ1GubD8vZpAe5F3xm81Gy+UyWC8Kjpmo/40ysywLcP34+KjValXx3jRNw7zm83nlMx+jU2I/plar7SmxW5YLwxXgOQsK4MLL5VLz+Vz1el1Zlmm5XAZ3bjQa2u12arfbevv2rbrdrmazmabTabAaZ3euFO7rQoq91zHfFcL44vcdlmKqDwS6LGBGMKlWq6V6va67uzstl8tgnA7DkkLAxyPcgMh1OM7RarPZKI2FD0YzSKweS12v14FzJ0mi6XSq6+trjcfjwP+3221gUdDdi4sLvX//vpK0xYHbGZbDE7jO5OP8BzjEwBx+iX0oFkFDXjz/iJmmv8/YJGk6nWo6naosS7Xb7ZCkeox1y/c5cC3mR67EeX/E0vRP7sOAmChBtygKrVar8P90OtXNzY1+//33StZLLrPb7dRsNnV8fKyLiwsdHh5qsVgoSRKtVqtKAskgEQJegJHE1JTPnT3GgdRjjc8nZm7x/LluPC4Et1wutVgsVJZlSA+8guEeF+dMoAsK4tjNZvNEaDyguoXEVhxTx7IsdXt7q//7v//T/f19CHaO61mW6fj4WC9fvlS9Xtd8PpckbTYbLRaLiuUiANw4zqBdYSRveDITiqHOhe8Q4tfnM2duKMU9GivebrfB+Mqy1GKxUKfTqXirexcw5XIDSSAMGB7loNTLGa5pL1u4C0LvxuOxvn79qq9fv4aA5j+1Wk2dTifUfC4vLzUcDnVycqKy3NfQnI47rKH87XZbUUCccQOnvA/EOT3mOBcwgo9hLM6TYvIRewKQDkS3Wq0Kg+Rvh2qMEOaJ8t1rUs8knQI6LjO41WoVgvr19bU+ffqk0WgUCoFOXQmMm81Gv/32m7bbrX7++WcNh8NAE916wP1ms1khEmTF5DQuDEkVAbjSKFtwn5ic8HecEsCe/Fyu62TEjWe1WqnVaqnZbIZrubG44bnRr1arShKOLFJ3bbeImLptNhtNp1PNZjN9//5dHz9+1PX1daVuFceF3W4XoK3T6QQLgSg45rrrOwwhGPck9xQ3Gs4HMpw2I5Tncg+uy1w9Z/Exep0NeMJQHG6dJMVj83v63PD0siz3eQoDh8n4xfCA6XSqyWSix8dHff78WV++fNFisahYKDdg4tDi3W6nfr+v3W4XrhFXVj1QehGPOlKj0VCz2axguscvjwfU1dbrdYUWx8yIc535xSmAy8DprV8Ho/JQADGKcx+H1dj7pD9KUG7VzqO50Xq91mw20/39vcbjsS4vL/Xp0yc9PDyEtQgGBIY6W3MKuFqt9Pj4qPl8XsncgYy4iBmXQlqtVmBknM94XTHuSW6NkoLgUABKdOuNmV7sIU6CPPHk/Uaj8eyY3NMZC9fcbDZKkkTtdnvvKX4B/n9OId++fdOnT5/07ds3leW+xEJAdivywOo4u1gstN1uQyHQa2guJCwNS4Iy4kVuhR4jPJfwcbmHxITGFRh7iEONjwdlOJR6mQgji5XmnuWxj7mAFqlbFAMjqE6nUz0+Pmo0Gunm5ka//PKLPn78qPl8HkrSeIu7P+87c5Kk5XKp2WymxWJRSbhipsS1VqtVpRi6Wq0qARwr51wybgSFNbqQ+cyTNrzcoThmYi5cjz0o2mPHZrOpxBWOiSsMzEF6ioPr9XoPXwgH6yKxm8/nGo/Hurq60n/+8x/9+uuvGo/HQUDAFgNF6yRVzWZTaZqGEvZisdByudRyuQzMar1eV7ylVttXcR1vGbhbPvQX60RBGIPjNEJ4rsbmtJh7OiP1GMIcn2OoHMN7fk+E7vd28sD91uv1fiwU5tAwCkF4l5eX+te//qX//ve/mkwmAWLAda/jOCPxcgeDWK1WocTvnuTBtd1u6+DgIFRf47zAY0kcQyAE3NOPi+OAV7OdzsdxJa4L+pyQAzU893SuBdQ6y3RFOssM0P39+/c/rYsQkB8eHvTPf/5THz9+DOvVDCQWiv9O01SNRkOr1Uqz2Swsm1I3g5HFOF6v19Xr9cK5eBD47RN4jjU5FMbeAaQ4zHhA97E4nMUlGn95/uOsEeWRX3lscYW48rhnWZZKR6NRGNB2uw0raTc3N/r27Zv+97//hWKj3zDGSicLWZapXq9rPB7r8fFRrVZLWZYFpTxX1sHFm82m5vN5IAOec7iFOq0kYyZ+ucV6UI9zIm9i4LpxOcYV514Sl1RcITGL5Rwg0Fnmc7lNOp/PQyyZzWa6ubnR1dWV7u7udH9/H9ZK/KZODri5WxsQstlsgqCfw3Su5dm2pFASjwOoW5Z7RrPZrKzmxVkysBYnpzC5uOzueUWcx3nuwfvPQZKXmzjGjQklxYZdFIXS2Wym1WqlyWSi6+tr/fbbb2GtgME65YzXBlzj/KCMVqsVyg9OJ71K6pMA27H65xI5LNvXYvy3V1+9FhaX02Pvdit2T/Zj+ey5TN2P81jFfONzec+JBGNPV6uVbm5u9PXrV11fX1eWNyVVrBAhudu6K3pzhccdAr/DlfN/4tRzwndF8sIyvfjonuaW7DkNUOiWGscFX+X0NRxim9frmNNzBMHjRpwHuRF7PwTHpPf39/r8+bN+//13PTw8BLrKAIEe+D5ajiEENhUnZFi1J4oeZBECg4sF457iE+Y9/w3EejGQv91LUEgswLj+Fpd7YobmSxWMOwjWKtswUZSEwXKOKzNJEqUfP37U1dWVptNpWJQCb+nagCZjLVgfVJqL+voBimAyMQ6jUCyPhSJW9GJcdzhg8l5X8mSOzxzXHd89WMfvBQYU1a443vMNrvucx3qe5bE2zrk4Bjm0222lnz9/DrUox2Bvw1kul8FTyC1gUU45sS4XHl72XPxwy2KxigQKZcS4/Nwytcc8LNE9+DlP8b9d4bFQubeTlHr9qe3W5+fzRvDO+HxebjzMqdVq6fz8fB/o3dXJwne7ffcgHoJAYFb871k9Wie4bzYbZVkmSYHl+IBiNgJJcEE7FMTK8c/c2xzqYtiL45MLiXugkDhmuIcQX/jbY6FDo8czL4zGxtBsNnV0dKR3794pdcv0jBxluFvjSZzDseQ4MIg8z0PHunsCCuRe7i3udS4gFwjHozTGA2w6M4tx3zHd10mYm0Ozw6cndkVRqN1uV2IsxuXjjXOYOJ9y2GRO3W5Xb9682XuK00dgwb3DXZJVQS9/t1qtClY2m031ej1dXFyo2+1qsVjo4eFBNzc3ld5htziE5jDH5/4/5wGtWCDNC7VaLTQEuic78/IyvAdurxi4JzgD9LK7xzOHNf/NvZ2lMg9nj8DWjz/+qE6ns28x4qJxz6srBKX5+sZz/L3Vauni4kJ/+9vf1Ol09Ntvv4VOF+pE7g14Vr1e12KxCPlHHDylp273drtdYYje1uRzcPYTk4u4RubFRX4gKlg7ivJcyuMbx2CkXqGmDOPjIfE9PT3Vu3fv1O/39zJBq04dYwxlUGyCiSmqV4pPT0/1888/682bN6G32Fcb/R4e5Ihl1MY8eHuppVarhS5Fh6vpdBquDTzgmd7l75bskINnsSThccEhzq2cpJjPPA4xDu7DGJwYpGmqw8NDXVxc6OzsLDC+sJ7iluBCZ8C+2wsXRBkU+waDQYAtdnp9+fJFo9Gows48i/WiI90veJbTU/+bvSG050ynUyVJoslkouVyWelO8awdQcRxh3hJ96Of60zLyQweURRF6Dnwe8TJsHsu92232zo9PdXr168DWjQaDaVY5XPBnv/jpVdXDjdpNpt68eKFsizT1dWVvn37psvLy+Ahjqt4FS/u1Wq1lOe5siwL5f2ieGrHkRS69rvdrtrttjabjVqtVvDK6XQa1ml4uVKcIWKQzWYzLI4Bf15nc8rv7A/hxzmOU21gPjbqer2uw8NDvX//XkdHRxUFpu5mzmY8g43LGO5BDObw8FDD4VCTyUSfPn3S1dVV6IaEIsf0kGuzXJAk+zXqk5MTSfvNONPpVN+/f5e036jTbDY1GAx0enoaYklZlprNZtrtdprNZqrX61oul0ExDhvAWZZl4VwU4lsWMBTm6wbplu+JH/JzwXtuQi4oSb1eT+/evQuw5UYaVh4d63BBHwzCd9zmuH6/r5OTE63Xa11fX4e2IicQMVQ4DBKvmEi329XR0ZFGo5EuLy/V6/WUpqkGg4HSNNXZ2ZlOTk4qTI4tfkmShJ6C8Xhc8RCwHY/0BNS3MzhFdtobywImGrMvcj9PdN3Q+/2+zs7OdH5+HlqvpH2etVwu95QYFyN587KFU0jiAZ8lSRIUkiSJbm5uQvyIKaDnJLHVOc0OvU9pquFwqMfHR9Xr+27+4XCoVqul4XCoPM8rGTFwAl0GDlarVSXI+5Y3KuEQGIehGKaBceQgSfP5vJI8eoeOK8/v32g0dHBwoIuLCw0Ggz95clmWf+6QhAnlea6yLCv7+VzAbDEDRm5vbzUejyuNyr5mH3N2JxOeVMLAZrOZjo6O9PLlS93d3SnPcx0fHytN91upgQHwn8kWRRFIglsx46JfAOPwQmtcJ3OKHNNezmWXMc0mZOcOa8irVqup1+vp/PxcZ2dnYTGQa0LZQ9c91slFwUeswrP23W6/3+Tw8FCtVkv39/dhAyqWweR8D/tz+/68QLdcLoMQYVHHx8chOez3+5UkDw9BcI1GQ51ORycnJyqKIuQ9s9ksWDEdMfEyA/OLSykxXHvG7mkD98ewMDaqHJCh4+NjvX79WoPBICiCnCn0TvviDwKnk8XrXQiG9ZVut6s8zzWZTDQajSqlF0/avObEb4I/90Mo3DPLsiCwTqdTKUT6IhaKjRO0druto6MjSXu2NhqNNB6PK0qPvcGbHzwh5nhvgPBci3gJpXbjxYO2261arVZIGc7OziohwAuo2+12rxS06hbhS7Tr9VqLxSIIpN/vq1araTqdhkUxF4xTQe9+dAjDE1erVWXNpigK9Xq9ikE8lzvFK6AOQUmS6PDwMLC029vbEPyJifP5PFB1jyEeS51lulfBIBGiz8eDvqcbeZ7rzZs3evXqVci1eCGH9Xq9j40M0oXlWI1F+hIoUPP4+BgWxZ6rLTks8r9v0QZnuTelkk6no3a7HYp/CAnLJLgzobhjkmDfbDbV7/d1cHCg4XCo6XQaIO3bt28hF8LDGYsrx+/pRCBOE1CwKwulttttvX79Wq9fv9bBwUGlTdZrjVwnBPq4a8TpIMqBUkrS4+OjJpNJoHu8GKyf6wphYkwCGHP+3+12wy5ih1dnWw5fXNuNg7kkSaLBYKBWq6X5fB66NOOlCQzK5+rZOrHB0YTsn2OZHwrcbrchaydJRGnkSXHP2B9zeCphgG1YgOcSWGSWZaHb0RmMBz4/z5mOZ8QcD0St1+vQLwYUxCuWxB/e4/x4jT1uXSVBxHvKslSv16vslZlOp4G6klOQTEoKyS8BPWZmyIF5ctxwONTbt291fn4edhWT3HJsvBiWemGRyTqWevAmD2Cifo6kijCdpXju4y9XNpQWBeH+fg8vASEIp/HO8oBaXl709HodBEZSIAIOV64Ap/eUTlywDnmNRkN5nuvly5c6Pz9XlmWVeA1cY7jcu9Fo7GPKc4svfjICJ0DCyd0a0XJcYvDYhPcRTyh3EAMoyhlfrySr0tMjRIgNQARCo0jpZXWUyZi63W6gqORixEcgxRNAX+RyJGDeLidpXw7K81zn5+d6+/ZtMDaPty5j8h3unTJgdzu06EyCRBCl8HJ4co9BsHFxzy0ewRHwWc71ifteDwTF3kI2s6JIb2qgY9+9h3OpsZFHsLQANMaLcc6yPLfC2JgrySAKgf6yOOhLBp7B452Um1LPKN0avHzAZ75QxSuuD7k3xBQzzogZ2GazUZ7noXTuCudF0sf9iG2UURyTPalDICCBw0yr1dLBwYFev34dKgXX19eSFBJOxkGXZdyF4nkNTy5qt9s6OzvTmzdvKltG3EPYBed5WoBz/iDxcazGYvAcghSDc+9wzHU8d0rtMMK5WGuj0QjPDvNqq3eUQEZC5muZMx4bgmWUB/j5XicjIWaODw8PlVKQNxKC+864mDtyZCXx7OwsEA6XBXkfv0EkPCkoxTGb+OKZL4HVH1nh53ANjymOsXEA9MzcA2qv19NgMAhxBsUzLvdQv68bBK+YRXp1ASEAm3E27t7m3Tu879dy78+yTC9fvtSrV6/U7/f/VAj1udDDzfl49G6326/Rw8fdMrFIJuhsytcM3Cs8HvjnWIivOzAx3yyaZVnI5v3evDyucF/3AO7tHotXMW5Yl6TQ8yw9EQis1yk794SluTw8nr148UIXFxc6OTkJSvbFtBh9gDBkw/1TtzjPB4LW/sBrIMAtBejxc4EUV5wrCabhiST3cKv083yPh1s6x7mXxMzIvdQFQ32N8XgR1Uv5wKRXM5w4cM9ut6uzszO9evVK3W43zAumiUFzDUoqXi7a7XbK83zPvtwLOMkZVdwB6FbqQTXOW/A8L2XEXgQt9om70hxK3VuIG7ESXDHOjIgjGJ3Pj3GgYDyVJI8FMSAPZaGgTqcTWoSo/nK/OH7ytFXm4g9z4BlhKZN2mHDsxTO4idfAnDJyExSIVaIM79XimiiApO45y/e6lr8QMIIHZpwNen2K+3oJJDZIvz/XI+/hGp7x44mnp6f66aefNBwOKwjBPYmPy+WyYlDuKTygrtvt7gO9Vz4dPqSnHMWTLxdQXE11ZcVC9DqY19II/G75DjeMIxace1IcWzy++HKCU1mMAjLjivKxwjaddWKYp6enevPmjV6+fKl2u10xmKIolOe5JIUa23q9rsQZjs3zXG/fvt1XkbMsC49whTO7MvjBCzyO4EEOZyiFH55ZnGVZhZdzPPkCA/eEEOH5WoYvNfi93bvc8rmG5wMoyZXF4wtRDEQHY/Qch57r4XCoi4sL/fDDD+p0OpKe8iISVe5LBSLP88r+y6LYt8IeHx/rw4cP+utf/6q03+9Xlnx9sEzKOT9WEjMh4M0ZHAXMLMvCZGBbKM8TU3+gMvf0OOU5ixdS4+VqPBirZbnAK72eB02nU43HYz08PFSEz4sxUCqhxemHH37Qhw8fdHBwUJEX3t9qtbTZbMIWReTWbrcD84KOHxwcqFaraTQaKb24uNDj46Om02kYBJYB5MCx3X2xdIcTt14U5cU+aLfXpbAkipK0pPorxmh3faenXvLxHMHh0sv0SZLo4eFB8/lco9EoeEu9vm/AY/MsCmHs3W5XP/30k/7yl7/oxYsXgZgA8xgjsAi8ZlkWCIzvwazX67q/v9evv/6qz58/K3358qVGo5G+fPkSBoCbY5GcTAEPobigXHhxecbLEV5m9+v4Fgws0plJDFfOED0Qe88BkMt4PAsH429vbzWZTHR3d6fZbBbGz/oLWX2r1VJRFOr3+/rpp5/04cMHDYfDAHUOWwicvjVnd4QCDCdJktBVc3d3t/eewWCgt2/fajqd6vb2tvIEUo8jTBKIiqkox/DjtSgUxv/OingRq2JhY9UOmYzPcxU+8zYfZ5TMx5sUHh4edHd3p+vra83n8/AIQl9jB/LKstRwONSPP/6oH3/8Uaenp38iNF7xpiPHkcGJCnW72LAkKW00Gjo5OQn71sFVDnTc9heTA4Lc6okhCBnlxlUBjwu4OotdXopxeu7sD0Nwb+b5jl7yp0fMqexyuQw9BjyoM37wAmOgJff9+/d6+/ater1epXDqkEULLauysQd7tQIPjmNeKilsXyiKInzlBHUmp8lezo8TN+CKIp8X26igEje8toT1wuNpO6VrBq+I8w9vWOD+Dw8PIUYwLxrB2+12mAdrJ3TqIyyn+nmeq1ar6eDgIHQznpycKM/zMB8giXI9bIsOSbwNb4+9O4ZjZBoe7AlPbjQa+ve//63RaBRgyOMLF/bFK1eUpMo+E5TJNeJ4g8Uvl0tNJpPQLOf9Zl5W8aCNN6KQ6+tr/f7770Fh0FTuy7h55hiLdTQe9vt9LZdLHR4ehj6zs7MznZ2dhb0jXlYqyzI0eHQ6He12u7B/NEmeFu08oXQ5MT8fY1EUT22rULXj4+PQKQ/GuhUBV27tnlNQM0LZMDcvccSZNWsiPMdluVyGB4KiBG908ycfMSkece5ts5CFdrsd1mPoTwMmGZd7PvtfDg8PQ3e/r4JikLBFPITHOQYYSp+2/HmiyDV4D88j8w/b68gfsizTu3fvtFqtdHl5GRgJLvccf/dVNXDbs2J4u1sZ9yWuwHKm06myLNN4PFan0wm9v04ceDgcucBsNtNsNgtb61AyzR1gvreYdrvdcA+PY+wQ6Pf7lZoc4yWzJ7cgXj0+PlbqWli+x2WMBcMgtnkJK6yn8IKP9/t9vX//XkmShD0mMBIugPadlTEIL4+4cmIG4oVG3xpObBkMBup0OkE53W634l2tViv0n/HUVwJuWe47VujkBLfr9f3mJMjIdDoNne882AfP8JjGiz7rfr9fiSGTySRAdrvdDueQvPryAWPBYCErzC3F1bBkrBYO3mw2dXl5GXqF/YJYfJyLcCMfBMrwc9y7wGKoJNn/wcGBlstlUEiapiGYk4ze3Nzo9vY2eAYbj4bDYSijg+vED6848EU7nkt4vuEI0el01O12g8fhpXgBRMDjsZeLYKzI2408VCHIQj3bxOKOjo6CZVxdXenm5iZUOuOSvVNQ/9/Xn50tYUVMgOvQtTiZTCoKdbgcjUaazWYha7+9vQ1jOzg40GAwCLvKSHg5Fm9lzs1mM3R5YnA+F8/m8Tysn22Ay+UyNE14bEJOvNdoNEI4QNG1Wi1srgIxUu/Vxc3BPybB12zkea7r62tNp9MAUy5UZ0i4vrMwp8HECUkhBuAt5BnQYqyIflvwu17f9+COx+MQY7rdrobDYWBLCJ98A5oKXK1Wq/BVUJ4/eOFVUmjqICZMp9Pw5HJfevBmC4co7xXmN/Lx95IkeVpP8YBInsBAwfXDw0NdX1+H3VrQZvIGX/dGSV4mR4FMgAni4p7Vp2kagqAnfOQXVHRhVN1uV1mWha8uRFBZlqnT6VSSVMbjSmC8rJ9QVmEXMooFqvAuz6MQMEZN8GYeJIk8jcO9yj02dEgiECyK5In3u92uDg4Owhbjm5sbXV9f6+7uLnwrHcpwDPXg7kymKIqQQXtZxguVeE673Q70l3vhSa1WS0dHR8qyTIPBQMPhUFmWheIgBU5KH47dWKaX9IO1WobO1wb6MzCBRSzePdBjBLEHj/G/fY2GvxeLxdNWCDCPmALOeUafJElYsuz3+zo9PdXd3Z2+ffum0Wikh4eHCk93AhCva8SLWJ7pg62+bLvZbMKzLQmqR0dH6nQ6Oj4+DkrB6twDfJcV1gzsEMMQCrBG5z+5Q1mWlb2MxAofs2fnXjv0mp8rsCzLsDmKBDpQYk/2EIbnGk5dgSGssd/v69WrV7q/v9fV1ZVGo5Emk0lIPrFEEj48AoVh8S4sJoNA2aTqDQ0kdcPhMHgH1osQwGw8i7HDeryLEiGxAxmaTHWCRyiW5VOHCvNwi0dmKMNrghgm6ylAFyySsYRvr8OK3K2ZQPxyD6Ku1O/39eLFi1B/omzNs41hKhAJlOHK8cKmxxk+xwLzPNdgMNDx8bEGg0Hl2Sy8vDTD2ohjPnvtmf9utwt79JvNZqjBAaGMy7sksXIvzHJfJws8rJQKMgrxRnVfYEzdatG+/47d0Su+flyapqFnq9PpBAtnAY1YQIJIMCdZpPTR6XQqhU+vFmPRg8FAh4eHOjw8rNSW+NntdqFJG4V5vxcK4X1IgT99CQhnHF58RC4Ozf43XugVCKrH3JugD4Lkee6ln7SC8c6S/H9fXqXGhcK4BgkYFtXpdJTneVgaAErYm8GA7u/vg6XRfOCsjCclsd7P40K8Muv1rPihBu7hcVwhiLMPnwTWq9we1BmnXxv2iRy8bJLneaVqDXWv1fZPXPL+hHq9/rSPnpuhGApkPhlnF1iSQx+UmOMZrC+RcqwLsSgKvXjxInzmAdCtkRhG7EB5QAOwCD6jSE8AEZwbV61WC3s46/V6eGwjCmZcXh8kVnkhEUXjJSiNzbWMUVIlWcVjPSlP6Q4Ez/2hbAjW3ZYTvcAGI/H/URRCjr+wwJkXZW8vazAeJwNgMnCCwBEw16OuheXTwEAOhpew85hrYSTe3OGxFZLiCOHU1peDkSPMDwUyz+l0qm63W/kembBv0guKWDpCZNLgsyuK8zgeuGHCXoT0yXjiCPZLChiMUlEgJXK8JqbYKIjJsneFe3vJ3b2YGlWz2aw0S3iVAoNwJXhV3NHCyySe9yE7r5Bvt9tQRUBeeExRFE8PzMGtvRMdwYCZDme4Z6wwXgyCuhBBt1arhR4wSZVvuXZFOwN0SPVFMvcufgMlCMmDOtch6XQGBW1G+MQOBIkQGSvI4OkESkVeGDRj9tVF5opBMM7wpTbOMLwZGcGTQMVW5FzdoSmGPy+DY/F4jSesTizigqc3sBHcCayO6cvlsrK5iNxjvV6H2p4zHQToRVSgDoaEkcUIwdgwLhDDIZxyjTdgME/QASMKgR6hxWvOvvbNCb7Hwiu/CN8z3XgvSVxxJan039yb63m88gqzVxmAQ4c6Z5Red2OOJLU8sMFzBTce/kbAniLwP1/Pi8f7+gmK9vWYWKYwNGJWo9H48+5gBoPVxyUIvzBLnh4EQ1b6x2e++8njSWxtz2W/ThT47SUSCIAnong19+F42BrCx+LdS/BYz8V8jQmLh+VxLX9GscdnjAM5IguXBx7jDDh1q8BdnfJyEd6PIQvt8l64cPq05wQMxuLd2lzAZN28sDAsCVpKJdcV5TDCecCJJ49e0sDgWL/3gO1QDZNyeGP83Mfl4KUi7kFwBzZROucQe7fbrcKKk1uuK8Q1inD9nBiKKOj5EyDcnZ06uwW6Erw+hXC4PpMgMDIGMB9Bcr6vk3g9Co9COZLCuBE0uZdfH2LDmD3O4EFuPBQZOceJCi/eB94TBkUc8SDl3/YD30d4Xuvhhp4zONQ4tjtcoFjHV78/x8zn89AIgTcAG5RpWAHE8r3qwOee4DIPD8buxV6mp2TkHuCGgoG5wLmms1jkEBu2G9NyuVTirurBncGT/JD4eECi8yNJktCvhXfRvOD02a3UcxenvU4dnfFAP1GIl9xhUOQrTt+fe2orVV5fC4EWU4mGRTn8erM2RuZJIqUSlA9sOaw/tw7jdcV6vf4UUzyIw7LiYMwNUArHuDIQclw7YxII0Kk1/4P/DnUOeVRtHSadgjthAUbwcI9vQKr3gEmq9PZyDa6L13tPGcKE1W02mxA3pKdFrc1mo3a7HfrZfD8lMuQ6aZruyyyuSX+5JROomLRTRAbpbuxLq1zXu2DAdO7ND67Ob/dOoMavTY7C/z4eKr/uJUmShNqU16jcuxyCHZpRFnAfs06vEQLTvlZPWYVzKUjigcFrnUGAjw5pDBKXfI6NMTAskPO8bMOgXQkoe7fb907F5XEsE2tCIM/Fo9j7SCB5EQ+c7mIo3Dces9fAGJeTIJ+7M1d+4loYLxABWTgxqdfrSghgXtYgs3ch8jnUEUvgHH6wPOf+/HZIQyBAiBdF3aUZh9Np9ySEjfHElou18jfewfFAtbNBDKUoitB1iZE6dHle5obnK5D8eMdMrVYLSSfy8IcbJJ5zIBCsxRM5BlPJPNOnr1Z1WHO85X02xjAwukI4nh9il5MNxgSMuLVjrQRvXyrw0gbzZNwImDl7i5DHPQyN8XhR0uOJGxtj8HKPH8c4vCOGBHiz2ezZlwvPYwUW5DDlXkURDu7u5Qc/1+EDZsNiF9/pyGQc+pzFuNLi4O9kAxbo8c3/hy2iKITLuNyaGROW7Mpizngt1WZHCYdPxu91ul6vV6mWkEAmXsEEErz+xOc+Ed7zgfO3B2WUDOzxHkmbQ4h/D4srkpjitTWsl4ImAqP6HFe8vQ0VT8DaaZQDTrkX13fjc0IA1OE5XJ9alhsWhAR5sEN4u92GlUm2TWy32/2jpcgLnoMFZxiOuT54LM1dHAVzDaeTWLDf11mKpGfL9HmehzoR9SwP1J7bAD1xxo2wGo2G5vN5pUDplV2oNPJgfB6ndrun9RLP+vkWceKGpwrIM8uysMOgXt+36fZ6vb38gBUvVXswY3Be/wEm/PF+xBavODuTQWhxIMaDsGxnNGA82MxYPR7EDBGlc66zIF/PYFxsKySvcXhkrQUDQXEYnbM9rkmDhCecGA/j5bpZloW2WQy70+lUn83iCVtMT50GcwEGh+V5xwhu7THIYc3rXB7DEJYrkCAawx5CBh743DN4Jy1uVN5+6nkJAbjyqKc/cpp4bcSJiCfCJIr0FMRGSg+zQ613pCYeTF0IDmUOOxQD40poUey3IJCwgfv+iHasx7HeIcvjFEbi5XLHea+TeRcJv8kxXLDETr6al3MxKoyIBJPreLJLAu1s0FODOClk7lQiqMHBFv2JgGHfDBdFKGAk9BWoceblSsK7PLAiWOfw/r6TAI5DiL4i+NxvZ3hOdQm+sEEEwXuz2UyLxSK0OjmF9UoC9+ea9DHHGTtPHndjqtX2TzTy5nC+BQkDJF9pNBohuPMg0FCWQmNYLuVjLxF4ucGLbJQ3ONePQ2FxHuSU2SHMFYmQPFdAAP70C+5HAsxKIlVhntiNUsqyrOyVx+Khs4ylKIpKGQjjarfbTx0nf8QaiqvMCdiCXWVZFtgVXjMcDtVo7J8EyBpKUey36H358kX/D8MmIW9tCRRtAAAAAElFTkSuQmCC;clipPath=inset(13.73% 7.43% 7.84% 13.37%);" vertex="1" parent="1">
          <mxGeometry x="550" y="190" width="102" height="102" as="geometry" />
        </mxCell>
        <mxCell id="Tpp6FSEmbBxcYZosuy-4-5" value="Causal-VAE" style="whiteSpace=wrap;html=1;" vertex="1" parent="1">
          <mxGeometry x="551" y="788" width="120" height="172" as="geometry" />
        </mxCell>
        <mxCell id="Tpp6FSEmbBxcYZosuy-4-6" value="图像+标签" style="whiteSpace=wrap;html=1;" vertex="1" parent="1">
          <mxGeometry x="551" y="550" width="120" height="60" as="geometry" />
        </mxCell>
        <mxCell id="Tpp6FSEmbBxcYZosuy-4-9" style="edgeStyle=orthogonalEdgeStyle;rounded=0;orthogonalLoop=1;jettySize=auto;html=1;exitX=0.5;exitY=1;exitDx=0;exitDy=0;entryX=0.5;entryY=0;entryDx=0;entryDy=0;" edge="1" parent="1" source="Tpp6FSEmbBxcYZosuy-4-7" target="Tpp6FSEmbBxcYZosuy-4-5">
          <mxGeometry relative="1" as="geometry" />
        </mxCell>
        <mxCell id="Tpp6FSEmbBxcYZosuy-4-10" value="训练" style="edgeLabel;html=1;align=center;verticalAlign=middle;resizable=0;points=[];" vertex="1" connectable="0" parent="Tpp6FSEmbBxcYZosuy-4-9">
          <mxGeometry x="0.0526" y="2" relative="1" as="geometry">
            <mxPoint x="-2" as="offset" />
          </mxGeometry>
        </mxCell>
        <mxCell id="Tpp6FSEmbBxcYZosuy-4-7" value="Dataloader" style="whiteSpace=wrap;html=1;" vertex="1" parent="1">
          <mxGeometry x="551" y="690" width="120" height="60" as="geometry" />
        </mxCell>
        <mxCell id="Tpp6FSEmbBxcYZosuy-4-8" value="调节生成机制，使其恶性程度为0" style="whiteSpace=wrap;html=1;" vertex="1" parent="1">
          <mxGeometry x="700" y="788" width="120" height="60" as="geometry" />
        </mxCell>
        <mxCell id="Tpp6FSEmbBxcYZosuy-4-11" value="调节生成机制，使其恶性程度为5" style="whiteSpace=wrap;html=1;" vertex="1" parent="1">
          <mxGeometry x="700" y="900" width="120" height="60" as="geometry" />
        </mxCell>
      </root>
    </mxGraphModel>
  </diagram>
</mxfile>
